<svg width="300" height="205" viewBox="0 0 300 205" fill="none" xmlns="http://www.w3.org/2000/svg">
<path d="M228.957 130.132C233.19 139 237.445 147.859 241.649 156.741C244.27 162.28 246.815 167.855 249.158 173.646C214.635 173.888 180.35 173.895 146.065 173.928C144.924 173.929 143.782 174.208 142.641 174.357C142.409 174.379 142.177 174.4 141.793 174.124C141.641 159.359 141.641 144.891 141.641 130.249C143.118 130.249 144.196 130.249 145.273 130.249C171.902 130.249 198.531 130.25 225.159 130.244C226.425 130.243 227.691 130.171 228.957 130.132Z" fill="#26EAB2"/>
<path d="M58.7065 162.195C61.7202 155.449 64.7217 148.697 67.7539 141.959C68.8273 139.574 69.9757 137.222 71.3963 134.87C76.204 146.979 87.3661 152.477 99.0336 148.348C107.093 145.495 112.769 137.344 112.709 128.705C112.647 119.845 106.86 111.872 98.6962 109.01C93.3935 107.152 88.2633 107.745 83.1014 109.377C86.181 102.565 89.2537 95.7507 92.344 88.944C93.3869 86.6469 94.4744 84.37 95.9157 82.0075C96.9108 82.051 97.5293 82.1866 98.1533 82.2888C116.769 85.3366 129.735 95.6719 136.001 113.369C145.168 139.264 130.779 166.124 103.886 173.953C95.6696 173.966 87.7178 174.016 79.5677 174.053C71.5314 171.751 64.7086 167.69 58.7065 162.195Z" fill="#26E9B1"/>
<path d="M206.146 81.7353C210.012 89.803 213.904 97.8586 217.737 105.942C220.992 112.808 224.18 119.706 227.146 126.876C198.552 127.162 170.209 127.162 141.836 127.162C141.836 111.877 141.836 96.9433 141.836 81.7353C163.372 81.7353 184.759 81.7353 206.146 81.7353Z" fill="#E4FE27"/>
<path d="M206.078 81.5432C184.759 81.7353 163.372 81.7353 141.836 81.7353C141.836 96.9433 141.836 111.877 141.836 127.162C170.209 127.162 198.552 127.162 227.179 127.091C227.909 127.963 228.354 128.905 228.878 129.99C227.691 130.171 226.425 130.243 225.159 130.244C198.531 130.25 171.902 130.249 145.273 130.249C144.196 130.249 143.118 130.249 141.641 130.249C141.641 144.891 141.641 159.359 141.625 174.071C129.243 174.33 116.877 174.344 104.31 174.261C104.108 174.164 104.15 173.989 104.15 173.989C130.779 166.124 145.168 139.264 136.001 113.369C129.735 95.6719 116.769 85.3366 98.1533 82.2888C97.5293 82.1866 96.9108 82.051 96.0748 81.9049C96.2757 80.9173 96.6917 79.956 97.4731 78.876C111.398 78.7574 124.958 78.7574 138.606 78.7574C138.606 63.4783 138.606 48.4826 138.606 33.2387C131.764 33.2387 125.076 33.2387 118.389 33.2387C123.29 22.5816 128.167 11.9129 133.155 1.29665C133.452 0.663301 134.64 0.109306 135.422 0.097C141.388 0.00315631 147.356 0.0532484 153.506 0.282038C153.528 0.724548 153.382 0.95605 153.205 1.16082C136.403 20.6007 138.272 50.0544 157.62 66.8934C171.075 78.6042 186.57 81.4218 203.583 76.3791C204.392 78.0365 205.201 79.6938 206.078 81.5432Z" fill="#050502"/>
<path d="M203.586 76.181C186.57 81.4218 171.075 78.6042 157.62 66.8934C138.272 50.0544 136.403 20.6007 153.205 1.16082C153.382 0.956049 153.528 0.724547 153.779 0.327757C158.097 0.0836542 162.326 -0.0748503 166.548 0.0360266C167.307 0.0559692 168.336 1.03644 168.732 1.82806C170.98 6.32542 173.074 10.9001 175.06 15.7229C167.728 22.8289 165.838 32.1804 169.647 40.4729C173.352 48.5383 182.58 54.2762 192.344 52.3877C196.093 60.2528 199.841 68.1179 203.586 76.181Z" fill="#FE2424"/>
<path d="M118.266 33.37C125.076 33.2387 131.764 33.2387 138.606 33.2387C138.606 48.4826 138.606 63.4783 138.606 78.7574C124.958 78.7574 111.398 78.7574 97.5684 78.7377C101.408 69.6857 105.49 60.6407 109.636 51.6253C112.424 45.5623 115.304 39.5412 118.266 33.37Z" fill="#FDCB29"/>
<path d="M73.7828 129.387C76.09 124.292 78.3972 119.197 81.0639 114.03C85.7099 111.152 90.2743 110.109 95.4033 111.176C105.176 113.21 111.424 122.728 109.319 132.682C107.305 142.205 97.2915 148.588 87.816 146.39C79.9371 144.563 75.05 138.642 73.7828 129.387Z" fill="#FD2424"/>
<path d="M176.525 18.5932C181.37 28.8228 186.215 39.0524 190.818 49.4982C182.201 50.0646 175.258 46.0083 172.173 38.9636C169.117 31.9835 170.692 24.6144 176.525 18.5932Z" fill="#27E6B0"/>
<path d="M73.7018 129.532C75.05 138.642 79.9371 144.563 87.8161 146.39C97.2915 148.588 107.305 142.205 109.319 132.682C111.424 122.728 105.176 113.21 95.4033 111.176C90.2743 110.109 85.7099 111.152 81.226 113.926C81.6478 112.491 82.2669 111.086 82.9937 109.529C88.2633 107.745 93.3935 107.152 98.6962 109.01C106.86 111.872 112.647 119.845 112.709 128.705C112.769 137.344 107.093 145.495 99.0336 148.348C87.3661 152.477 76.204 146.979 71.5568 134.756C72.1476 132.976 72.8841 131.326 73.7018 129.532Z" fill="#070907"/>
<path d="M176.471 18.4107C170.692 24.6144 169.117 31.9835 172.173 38.9636C175.258 46.0083 182.201 50.0646 190.821 49.696C191.462 50.458 191.859 51.2385 192.3 52.2033C182.58 54.2762 173.352 48.5383 169.647 40.4729C165.838 32.1804 167.728 22.8289 175.063 15.913C175.622 16.6286 176.02 17.4284 176.471 18.4107Z" fill="#0A0706"/>
<path d="M58.5611 162.327C64.7087 167.69 71.5314 171.751 79.5611 174.114C79.7527 174.188 79.8166 174.293 79.8166 174.293C71.0446 174.293 62.2725 174.293 53 174.293C54.8619 170.224 56.6388 166.342 58.5611 162.327Z" fill="#060A09"/>
<path d="M142.896 174.386C143.782 174.208 144.924 173.929 146.065 173.928C180.35 173.895 214.635 173.888 249.179 173.845C248.748 174.017 248.058 174.403 247.367 174.403C212.628 174.428 177.89 174.419 142.896 174.386Z" fill="#24BB90"/>
<path d="M80.0843 174.348C79.8166 174.293 79.7526 174.188 79.7592 174.127C87.7177 174.016 95.6696 173.966 103.886 173.953C104.15 173.989 104.108 174.164 104.056 174.237C96.1201 174.342 88.236 174.373 80.0843 174.348Z" fill="#24BB90"/>
<path d="M7.132 184.16H10.696L16.948 200H13.12L11.968 196.82H5.872L4.708 200H0.868L7.132 184.16ZM7.072 193.676H10.78L8.944 188.48H8.908L7.072 193.676ZM23.3108 184.16H26.8988V196.856H32.6468V200H23.3108V184.16ZM40.0044 184.16H45.7644C46.7804 184.16 47.6964 184.34 48.5124 184.7C49.3284 185.052 49.9764 185.592 50.4564 186.32C50.9444 187.04 51.1884 187.944 51.1884 189.032C51.1884 190.112 50.9444 191.032 50.4564 191.792C49.9764 192.544 49.3284 193.12 48.5124 193.52C47.6964 193.912 46.7804 194.108 45.7644 194.108H43.5924V200H40.0044V184.16ZM43.5924 191.276H44.7684C45.2564 191.276 45.6924 191.204 46.0764 191.06C46.4684 190.916 46.7804 190.688 47.0124 190.376C47.2444 190.056 47.3604 189.636 47.3604 189.116C47.3604 188.588 47.2444 188.172 47.0124 187.868C46.7804 187.556 46.4684 187.332 46.0764 187.196C45.6924 187.06 45.2564 186.992 44.7684 186.992H43.5924V191.276ZM67.294 193.628H61.822V200H58.246V184.16H61.822V190.496H67.294V184.16H70.858V200H67.294V193.628ZM83.7101 184.16H87.2741L93.5261 200H89.6981L88.5461 196.82H82.4501L81.2861 200H77.4461L83.7101 184.16ZM83.6501 193.676H87.3581L85.5221 188.48H85.4861L83.6501 193.676ZM116.916 183.872C117.9 183.872 118.76 183.98 119.496 184.196C120.232 184.412 120.824 184.64 121.272 184.88C121.72 185.12 121.992 185.28 122.088 185.36L120.36 188.252C120.232 188.156 120.012 188.016 119.7 187.832C119.396 187.648 119.032 187.484 118.608 187.34C118.192 187.196 117.756 187.124 117.3 187.124C116.684 187.124 116.184 187.236 115.8 187.46C115.424 187.676 115.236 188 115.236 188.432C115.236 188.728 115.336 188.996 115.536 189.236C115.744 189.468 116.056 189.692 116.472 189.908C116.896 190.116 117.432 190.344 118.08 190.592C118.672 190.808 119.228 191.064 119.748 191.36C120.268 191.656 120.724 192.008 121.116 192.416C121.516 192.816 121.832 193.28 122.064 193.808C122.296 194.336 122.412 194.936 122.412 195.608C122.412 196.408 122.248 197.104 121.92 197.696C121.592 198.28 121.144 198.764 120.576 199.148C120.016 199.532 119.376 199.816 118.656 200C117.944 200.192 117.204 200.288 116.436 200.288C115.348 200.288 114.372 200.164 113.508 199.916C112.652 199.668 111.96 199.4 111.432 199.112C110.904 198.824 110.588 198.632 110.484 198.536L112.272 195.524C112.368 195.596 112.552 195.712 112.824 195.872C113.104 196.032 113.444 196.2 113.844 196.376C114.244 196.544 114.668 196.688 115.116 196.808C115.572 196.928 116.02 196.988 116.46 196.988C117.196 196.988 117.748 196.848 118.116 196.568C118.484 196.28 118.668 195.904 118.668 195.44C118.668 195.096 118.552 194.788 118.32 194.516C118.088 194.244 117.74 193.988 117.276 193.748C116.812 193.5 116.232 193.24 115.536 192.968C114.84 192.688 114.188 192.348 113.58 191.948C112.98 191.548 112.492 191.048 112.116 190.448C111.74 189.848 111.552 189.104 111.552 188.216C111.552 187.328 111.8 186.56 112.296 185.912C112.8 185.256 113.46 184.752 114.276 184.4C115.1 184.048 115.98 183.872 116.916 183.872ZM132.526 187.304H128.746V184.16H139.882V187.304H136.114V200H132.526V187.304ZM146.737 184.16H153.193C154.113 184.16 154.933 184.352 155.653 184.736C156.373 185.12 156.941 185.676 157.357 186.404C157.781 187.124 157.993 187.984 157.993 188.984C157.993 189.984 157.813 190.804 157.453 191.444C157.101 192.076 156.677 192.552 156.181 192.872C155.685 193.184 155.225 193.372 154.801 193.436L158.653 200H154.621L151.189 193.712H150.325V200H146.737V184.16ZM150.325 191.228H151.909C152.549 191.228 153.109 191.072 153.589 190.76C154.069 190.448 154.309 189.896 154.309 189.104C154.309 188.312 154.073 187.764 153.601 187.46C153.129 187.148 152.573 186.992 151.933 186.992H150.325V191.228ZM166.012 184.16H176.128V187.304H169.588V190.532H176.068V193.58H169.588V196.856H176.128V200H166.012V184.16ZM200.704 184.16V200H197.128V190.676L197.284 188.024L196.672 191.06L194.008 198.728H190.492L187.84 191.06L187.24 188.024L187.396 190.676V200H183.808V184.16H188.848L192.04 194.732L192.256 195.992L192.472 194.732L195.664 184.16H200.704ZM223.242 187.448L223.506 187.496V200H219.918V184.16H224.814L231.234 196.64L230.97 196.688V184.16H234.558V200H229.638L223.242 187.448ZM242.262 184.16H252.378V187.304H245.838V190.532H252.318V193.58H245.838V196.856H252.378V200H242.262V184.16ZM276.306 200H271.998L269.31 188.948H269.958L267.27 200H262.938L259.326 184.16H263.442L265.35 195.272H265.302L268.278 184.16H270.978L273.966 195.272H273.918L275.826 184.16H279.942L276.306 200ZM292.815 183.872C293.799 183.872 294.659 183.98 295.395 184.196C296.131 184.412 296.723 184.64 297.171 184.88C297.619 185.12 297.891 185.28 297.987 185.36L296.259 188.252C296.131 188.156 295.911 188.016 295.599 187.832C295.295 187.648 294.931 187.484 294.507 187.34C294.091 187.196 293.655 187.124 293.199 187.124C292.583 187.124 292.083 187.236 291.699 187.46C291.323 187.676 291.135 188 291.135 188.432C291.135 188.728 291.235 188.996 291.435 189.236C291.643 189.468 291.955 189.692 292.371 189.908C292.795 190.116 293.331 190.344 293.979 190.592C294.571 190.808 295.127 191.064 295.647 191.36C296.167 191.656 296.623 192.008 297.015 192.416C297.415 192.816 297.731 193.28 297.963 193.808C298.195 194.336 298.311 194.936 298.311 195.608C298.311 196.408 298.147 197.104 297.819 197.696C297.491 198.28 297.043 198.764 296.475 199.148C295.915 199.532 295.275 199.816 294.555 200C293.843 200.192 293.103 200.288 292.335 200.288C291.247 200.288 290.271 200.164 289.407 199.916C288.551 199.668 287.859 199.4 287.331 199.112C286.803 198.824 286.487 198.632 286.383 198.536L288.171 195.524C288.267 195.596 288.451 195.712 288.723 195.872C289.003 196.032 289.343 196.2 289.743 196.376C290.143 196.544 290.567 196.688 291.015 196.808C291.471 196.928 291.919 196.988 292.359 196.988C293.095 196.988 293.647 196.848 294.015 196.568C294.383 196.28 294.567 195.904 294.567 195.44C294.567 195.096 294.451 194.788 294.219 194.516C293.987 194.244 293.639 193.988 293.175 193.748C292.711 193.5 292.131 193.24 291.435 192.968C290.739 192.688 290.087 192.348 289.479 191.948C288.879 191.548 288.391 191.048 288.015 190.448C287.639 189.848 287.451 189.104 287.451 188.216C287.451 187.328 287.699 186.56 288.195 185.912C288.699 185.256 289.359 184.752 290.175 184.4C290.999 184.048 291.879 183.872 292.815 183.872Z" fill="black" fill-opacity="0.44"/>
</svg>
